<?xml version="1.0" encoding="utf-8"?>
<!-- Generator: Adobe Illustrator 21.0.0, SVG Export Plug-In . SVG Version: 6.00 Build 0)  -->
<svg version="1.1" id="图层_1" xmlns="http://www.w3.org/2000/svg" xmlns:xlink="http://www.w3.org/1999/xlink" x="0px" y="0px"
	 viewBox="0 0 130 124" style="enable-background:new 0 0 130 124;" xml:space="preserve">
<g>
	<path d="M130.2,91.5v25c0,2.1-0.7,3.9-2.2,5.3c-1.5,1.5-3.2,2.2-5.3,2.2H7.6c-2.1,0-3.9-0.7-5.3-2.2c-1.5-1.5-2.2-3.2-2.2-5.3v-25
		c0-2.1,0.7-3.9,2.2-5.3c1.5-1.5,3.2-2.2,5.3-2.2H41c1.1,2.9,2.9,5.3,5.5,7.2C49.1,93,52,94,55.2,94h20c3.2,0,6.1-0.9,8.6-2.8
		c2.6-1.9,4.4-4.3,5.5-7.2h33.4c2.1,0,3.9,0.7,5.3,2.2C129.5,87.6,130.2,89.4,130.2,91.5z M104.8,40.8c-0.9,2.1-2.4,3.1-4.6,3.1h-20
		v35c0,1.4-0.5,2.5-1.5,3.5c-1,1-2.2,1.5-3.5,1.5h-20c-1.4,0-2.5-0.5-3.5-1.5c-1-1-1.5-2.2-1.5-3.5v-35h-20c-2.2,0-3.7-1-4.6-3.1
		c-0.9-2-0.5-3.8,1.1-5.4l35-35c0.9-1,2.1-1.5,3.5-1.5c1.4,0,2.6,0.5,3.5,1.5l35,35C105.3,36.9,105.7,38.7,104.8,40.8z M98.7,112.5
		c1-1,1.5-2.2,1.5-3.5c0-1.4-0.5-2.5-1.5-3.5c-1-1-2.2-1.5-3.5-1.5c-1.4,0-2.5,0.5-3.5,1.5c-1,1-1.5,2.2-1.5,3.5
		c0,1.4,0.5,2.5,1.5,3.5c1,1,2.2,1.5,3.5,1.5C96.6,114,97.7,113.5,98.7,112.5z M118.8,112.5c1-1,1.5-2.2,1.5-3.5
		c0-1.4-0.5-2.5-1.5-3.5c-1-1-2.2-1.5-3.5-1.5c-1.4,0-2.5,0.5-3.5,1.5c-1,1-1.5,2.2-1.5,3.5c0,1.4,0.5,2.5,1.5,3.5
		c1,1,2.2,1.5,3.5,1.5C116.6,114,117.8,113.5,118.8,112.5z"/>
</g>
</svg>
