<?xml version="1.0" encoding="utf-8"?>
<!-- Generator: Adobe Illustrator 21.0.0, SVG Export Plug-In . SVG Version: 6.00 Build 0)  -->
<svg version="1.1" id="图层_1" xmlns="http://www.w3.org/2000/svg" xmlns:xlink="http://www.w3.org/1999/xlink" x="0px" y="0px"
	 viewBox="0 0 130 124" style="enable-background:new 0 0 130 124;" xml:space="preserve">
<g>
	<path d="M130.2,91.4v25c0,2.1-0.7,3.9-2.2,5.3c-1.5,1.5-3.2,2.2-5.3,2.2H7.6c-2.1,0-3.9-0.7-5.3-2.2c-1.5-1.5-2.2-3.2-2.2-5.3v-25
		c0-2.1,0.7-3.9,2.2-5.3c1.5-1.5,3.2-2.2,5.3-2.2H44l10.6,10.6c3,2.9,6.6,4.4,10.6,4.4s7.6-1.5,10.6-4.4l10.6-10.6h36.3
		c2.1,0,3.9,0.7,5.3,2.2C129.5,87.6,130.2,89.4,130.2,91.4z M104.8,46.9c0.9,2.1,0.5,4-1.1,5.5l-35,35c-0.9,1-2.1,1.5-3.5,1.5
		c-1.4,0-2.6-0.5-3.5-1.5l-35-35c-1.6-1.5-2-3.3-1.1-5.5c0.9-2,2.4-3.1,4.6-3.1h20v-35c0-1.4,0.5-2.5,1.5-3.5c1-1,2.2-1.5,3.5-1.5
		h20c1.4,0,2.5,0.5,3.5,1.5c1,1,1.5,2.2,1.5,3.5v35h20C102.4,43.9,103.9,44.9,104.8,46.9z M98.7,112.5c1-1,1.5-2.2,1.5-3.5
		c0-1.4-0.5-2.5-1.5-3.5c-1-1-2.2-1.5-3.5-1.5c-1.4,0-2.5,0.5-3.5,1.5c-1,1-1.5,2.2-1.5,3.5c0,1.4,0.5,2.5,1.5,3.5
		c1,1,2.2,1.5,3.5,1.5C96.6,114,97.7,113.5,98.7,112.5z M118.8,112.5c1-1,1.5-2.2,1.5-3.5c0-1.4-0.5-2.5-1.5-3.5
		c-1-1-2.2-1.5-3.5-1.5c-1.4,0-2.5,0.5-3.5,1.5c-1,1-1.5,2.2-1.5,3.5c0,1.4,0.5,2.5,1.5,3.5c1,1,2.2,1.5,3.5,1.5
		C116.6,114,117.8,113.5,118.8,112.5z"/>
</g>
</svg>
