<?xml version="1.0" encoding="UTF-8" standalone="no"?>
<svg width="45px" height="40px" viewBox="0 0 45 40" version="1.1" xmlns="http://www.w3.org/2000/svg" xmlns:xlink="http://www.w3.org/1999/xlink">
    <!-- Generator: Sketch 39 (31667) - http://www.bohemiancoding.com/sketch -->
    <title>Group</title>
    <desc>Created with Sketch.</desc>
    <defs></defs>
    <g id="Pipeline" stroke="none" stroke-width="1" fill="none" fill-rule="evenodd">
        <g id="Create_3" transform="translate(-589.000000, -285.000000)" fill="#272636">
            <g id="events">
                <g id="Group-9" transform="translate(188.000000, 67.000000)">
                    <g id="Group-5">
                        <g id="Group-19" transform="translate(1.000000, 104.000000)">
                            <g id="Group-3" transform="translate(215.000000, 0.000000)">
                                <g id="type" transform="translate(16.000000, 29.000000)">
                                    <g id="Group-14" transform="translate(101.000000, 6.000000)">
                                        <g id="应用" transform="translate(68.000000, 79.000000)">
                                            <g id="Group">
                                                <path d="M42.8616548,0.0205104769 L2.1078109,0.0205104769 C0.9436402,0.0205104769 0,0.963825367 0,2.12751745 L0,37.246063 C0,38.4099791 0.943730156,39.3533388 2.1078109,39.3533388 L42.8616548,39.3533388 C44.0258255,39.3533388 44.9694657,38.4099343 44.9694657,37.246063 L44.9694657,2.12751745 C44.9695107,0.963780561 44.0258255,0.0205104769 42.8616548,0.0205104769 L42.8616548,0.0205104769 L42.8616548,0.0205104769 Z M16.8635665,2.12751745 C18.0279171,2.12751745 18.9716922,3.07092195 18.9716922,4.23479334 C18.9716922,5.39848542 18.0279171,6.34180031 16.8635665,6.34180031 C15.6993958,6.34180031 14.7557556,5.39848542 14.7557556,4.23479334 C14.7556657,3.07087714 15.6993958,2.12751745 16.8635665,2.12751745 L16.8635665,2.12751745 L16.8635665,2.12751745 Z M10.5397291,2.12751745 C11.7040796,2.12751745 12.64754,3.07092195 12.64754,4.23479334 C12.64754,5.39848542 11.7040796,6.34180031 10.5397291,6.34180031 C9.37537849,6.34180031 8.43191815,5.39848542 8.43191815,4.23479334 C8.43191815,3.07087714 9.37533353,2.12751745 10.5397291,2.12751745 L10.5397291,2.12751745 L10.5397291,2.12751745 Z M4.21593658,2.12751745 C5.38010728,2.12751745 6.32374748,3.07092195 6.32374748,4.23479334 C6.32374748,5.39848542 5.38001732,6.34180031 4.21593658,6.34180031 C3.05158601,6.34180031 2.1078109,5.39848542 2.1078109,4.23479334 C2.1078109,3.07087714 3.05158601,2.12751745 4.21593658,2.12751745 L4.21593658,2.12751745 L4.21593658,2.12751745 Z M42.8616548,37.2460181 L2.1078109,37.2460181 L2.1078109,8.44903135 L42.8616548,8.44903135 L42.8616548,37.2460181 L42.8616548,37.2460181 L42.8616548,37.2460181 Z" id="Shape"></path>
                                                <g id="cube" transform="translate(11.000000, 13.000000)">
                                                    <path d="M21.4903012,15.3393657 L21.4903012,11.2870194 L17.0908745,12.7716054 L17.0908745,17.563059 L21.4903012,15.3393657 Z M16.6509318,12.0514425 L21.4490566,10.4334136 L16.6509318,8.81538465 L11.852807,10.4334136 L16.6509318,12.0514425 Z M22.3701866,10.4461539 L22.3701866,15.3384618 C22.3701866,15.4870996 22.3289419,15.6251205 22.2464527,15.7525243 C22.1639634,15.8799282 22.0516864,15.9797279 21.9096216,16.0519234 L17.0702522,18.4980773 C16.9419355,18.566026 16.8021621,18.6000004 16.6509318,18.6000004 C16.4997015,18.6000004 16.359928,18.566026 16.2316114,18.4980773 L11.392242,16.0519234 C11.2501772,15.9797279 11.1379001,15.8799282 11.0554109,15.7525243 C10.9729216,15.6251205 10.931677,15.4870996 10.931677,15.3384618 L10.931677,10.4461539 C10.931677,10.2762821 10.9843785,10.1212741 11.0897814,9.98112988 C11.1951843,9.84098565 11.3349578,9.74118596 11.5091018,9.68173083 L16.3484712,8.05096155 C16.4492914,8.01698718 16.5501116,8 16.6509318,8 C16.751752,8 16.8525722,8.01698718 16.9533924,8.05096155 L21.7927618,9.68173083 C21.9669058,9.74118596 22.1066792,9.84098565 22.2120822,9.98112988 C22.3174851,10.1212741 22.3701866,10.2762821 22.3701866,10.4461539 L22.3701866,10.4461539 Z" id="Shape"></path>
                                                    <path d="M10.5586242,15.3393657 L10.5586242,11.2870194 L6.15919745,12.7716054 L6.15919745,17.563059 L10.5586242,15.3393657 Z M5.71925477,12.0514425 L10.5173796,10.4334136 L5.71925477,8.81538465 L0.921129969,10.4334136 L5.71925477,12.0514425 Z M11.4385095,10.4461539 L11.4385095,15.3384618 C11.4385095,15.4870996 11.3972649,15.6251205 11.3147757,15.7525243 C11.2322864,15.8799282 11.1200094,15.9797279 10.9779446,16.0519234 L6.13857514,18.4980773 C6.01025852,18.566026 5.87048507,18.6000004 5.71925477,18.6000004 C5.56802448,18.6000004 5.42825102,18.566026 5.29993441,18.4980773 L0.460564985,16.0519234 C0.31850016,15.9797279 0.206223123,15.8799282 0.123733874,15.7525243 C0.0412446247,15.6251205 1.42460059e-17,15.4870996 0,15.3384618 L0,10.4461539 C0,10.2762821 0.0527014657,10.1212741 0.158104397,9.98112988 C0.263507329,9.84098565 0.403280783,9.74118596 0.577424761,9.68173083 L5.41679418,8.05096155 C5.51761438,8.01698718 5.61843458,8 5.71925477,8 C5.82007496,8 5.92089516,8.01698718 6.02171536,8.05096155 L10.8610848,9.68173083 C11.0352288,9.74118596 11.1750022,9.84098565 11.2804051,9.98112988 C11.3858081,10.1212741 11.4385095,10.2762821 11.4385095,10.4461539 L11.4385095,10.4461539 Z" id="Shape"></path>
                                                    <path d="M11.1850933,5.06759475 L15.9832181,3.44311509 L11.1850933,1.81863543 L6.38696848,3.44311509 L11.1850933,5.06759475 Z M16.9043481,8.3677188 C16.9043481,8.51694921 16.4094125,8.65552048 16.3269233,8.78343227 C16.244434,8.91134405 11.0063475,10.1736689 11.0063475,10.1736689 C10.8780309,10.2418885 11.1575778,10.5233984 11.0063475,10.5233984 C10.8551172,10.5233984 11.0109494,10.2418885 10.8826328,10.1736689 L6.04326325,8.67052794 C5.90119843,8.59804459 5.70643215,8.49563048 5.6239429,8.3677187 C5.54145365,8.23980691 5.46583851,8.51694921 5.46583851,8.3677188 L5.46583851,3.45590627 C5.46583851,3.28535722 5.51853998,3.12973122 5.62394291,2.98902825 C5.72934584,2.84832529 5.86911929,2.74812772 6.04326327,2.68843556 L10.8826327,1.05116472 C10.9834529,1.01705491 11.0842731,1 11.1850933,1 C11.2859135,1 11.3867337,1.01705491 11.4875539,1.05116472 L16.3269233,2.68843556 C16.5010673,2.74812772 16.6408407,2.84832529 16.7462437,2.98902825 C16.8516466,3.12973122 16.9043481,3.28535722 16.9043481,3.45590627 L16.9043481,8.3677188 Z M16.0244627,8.36862634 L16.0244627,4.30012405 L11.625036,5.79062882 L11.625036,10.601185 L16.0244627,8.36862634 Z" id="Shape"></path>
                                                </g>
                                            </g>
                                        </g>
                                    </g>
                                </g>
                            </g>
                        </g>
                    </g>
                </g>
            </g>
        </g>
    </g>
</svg>