<?xml version="1.0" encoding="UTF-8" standalone="no"?>
<svg width="45px" height="39px" viewBox="0 0 45 39" version="1.1" xmlns="http://www.w3.org/2000/svg" xmlns:xlink="http://www.w3.org/1999/xlink">
    <!-- Generator: Sketch 39 (31667) - http://www.bohemiancoding.com/sketch -->
    <title>终端命令</title>
    <desc>Created with Sketch.</desc>
    <defs></defs>
    <g id="Pipeline" stroke="none" stroke-width="1" fill="none" fill-rule="evenodd">
        <g id="Create_3" transform="translate(-774.000000, -410.000000)" fill="#272636">
            <g id="events">
                <g id="Group-9" transform="translate(188.000000, 67.000000)">
                    <g id="Group-5">
                        <g id="Group-19" transform="translate(1.000000, 104.000000)">
                            <g id="Group-3" transform="translate(215.000000, 0.000000)">
                                <g id="type" transform="translate(16.000000, 29.000000)">
                                    <g id="Group-14" transform="translate(101.000000, 6.000000)">
                                        <g id="控制_块" transform="translate(65.000000, 204.000000)">
                                            <g id="终端命令" transform="translate(188.000000, 0.000000)">
                                                <path d="M0,0 L0,39 L44.9874477,39 L44.9874477,0 L0,0 L0,0 L0,0 Z M42.1757194,36.2142713 L2.8117283,36.2142713 L2.8117283,2.78572871 L42.1757194,2.78572871 L42.1757194,36.2142713 L42.1757194,36.2142713 L42.1757194,36.2142713 Z M19.6819614,19.4999662 L16.8702331,19.4999662 L16.8702331,22.2856949 L14.0585048,22.2856949 L14.0585048,25.071356 L11.2467765,25.071356 L11.2467765,22.2856949 L14.0585048,22.2856949 L14.0585048,19.4999662 L16.8702331,19.4999662 L16.8702331,16.7142372 L14.0585048,16.7142372 L14.0585048,13.9285084 L11.2467765,13.9285084 L11.2467765,11.1427797 L14.0585048,11.1427797 L14.0585048,13.9285084 L16.8702331,13.9285084 L16.8702331,16.7142372 L19.6819614,16.7142372 L19.6819614,19.4999662 L19.6819614,19.4999662 L19.6819614,19.4999662 Z M30.9288745,25.071356 L22.4937581,25.071356 L22.4937581,22.2856949 L30.9288745,22.2856949 L30.9288745,25.071356 L30.9288745,25.071356 L30.9288745,25.071356 Z" id="Shape"></path>
                                            </g>
                                        </g>
                                    </g>
                                </g>
                            </g>
                        </g>
                    </g>
                </g>
            </g>
        </g>
    </g>
</svg>