<?xml version="1.0" encoding="UTF-8" standalone="no"?>
<svg width="44px" height="43px" viewBox="0 0 44 43" version="1.1" xmlns="http://www.w3.org/2000/svg" xmlns:xlink="http://www.w3.org/1999/xlink">
    <!-- Generator: Sketch 39 (31667) - http://www.bohemiancoding.com/sketch -->
    <title>xxq-手动工具</title>
    <desc>Created with Sketch.</desc>
    <defs></defs>
    <g id="Pipeline" stroke="none" stroke-width="1" fill="none" fill-rule="evenodd">
        <g id="Create_3" transform="translate(-586.000000, -411.000000)" fill="#272636">
            <g id="events">
                <g id="Group-9" transform="translate(188.000000, 67.000000)">
                    <g id="Group-5">
                        <g id="Group-19" transform="translate(1.000000, 104.000000)">
                            <g id="Group-3" transform="translate(215.000000, 0.000000)">
                                <g id="type" transform="translate(16.000000, 29.000000)">
                                    <g id="Group-14" transform="translate(101.000000, 6.000000)">
                                        <g id="控制_块" transform="translate(65.000000, 204.000000)">
                                            <g id="xxq-手动工具" transform="translate(0.000000, 1.000000)">
                                                <path d="M43.0466667,34.3731709 L33.4714286,24.83496 C32.8795238,24.2453442 32.0885714,23.9166203 31.2504762,23.9166203 C30.4123809,23.9166203 29.6214286,24.2401263 29.0295238,24.83496 L28.9142857,24.9445347 L26.8190476,22.8573988 L30.3966666,19.3614462 L32.8638095,19.3614462 C35.5509523,19.3614462 37.7247619,18.5578989 39.3223809,16.9664578 C41.2395238,15.0567285 42.2138095,12.077342 42.2138095,8.11700174 L42.2138095,5.65418141 L34.7704762,9.12926262 L33.1728571,7.48564313 L36.4309524,0.0136967312 L34.0371429,0.0136967312 C30.0561905,0.0136967312 27.0704762,0.973779243 25.1533333,2.86263718 C23.5557143,4.44364259 22.7438095,6.59861035 22.7438095,9.27536209 L22.7438095,11.7329646 L19.2290476,15.296749 L13.8861905,9.97455259 C14.4414286,9.31188694 14.6980952,8.45616125 14.5933333,7.58999985 C14.4728571,6.62469953 13.9280952,5.78984517 13.09,5.28893257 L7.98285714,2.23649637 C7.52190475,1.95995089 6.98761903,1.81385136 6.44809525,1.81385136 C5.65190479,1.81385136 4.90285714,2.12170388 4.34238097,2.68523057 C3.37333337,3.65053089 3.19,5.14283304 3.89190479,6.31162911 L6.95619051,11.3990228 C7.52714291,12.3486696 8.53809525,12.9174141 9.65380954,12.9174141 L9.65380954,12.9174141 C10.3976191,12.9174141 11.0995238,12.6617399 11.6652381,12.1921344 L17.0290476,17.5352024 L1.89095235,32.8860866 C1.52952378,33.2513354 1.26238092,33.7105053 1.11571424,34.2009822 L0.136190411,37.5508353 C-0.199047701,38.6883243 0.136190411,39.8936453 1.00047612,40.7076282 L1.33047612,41.0154808 C1.91714281,41.5633539 2.6819047,41.8659886 3.48333327,41.8659886 C3.73999995,41.8659886 3.99142852,41.8346816 4.23761898,41.7720675 L7.70523801,40.9163418 C8.2499999,40.780678 8.74761898,40.5041325 9.1509523,40.1127945 L24.5771429,25.0488915 L26.6933333,27.1568987 L26.5833333,27.2664733 C25.9914286,27.8560892 25.6614286,28.643983 25.6614286,29.4788373 C25.6614286,30.3136917 25.9861905,31.1015855 26.5833333,31.6912014 L36.1585714,41.2294123 C36.7504762,41.8190281 37.5414286,42.147752 38.3795238,42.147752 C39.2176191,42.147752 40.0085714,41.824246 40.6004762,41.2294123 L43.0414286,38.797899 C44.272381,37.5769244 44.272381,35.5941454 43.0466667,34.3731709 L43.0466667,34.3731709 Z M9.6590476,9.78671051 L9.6590476,9.78671051 L6.93,5.25762568 L11.4766667,7.97612012 L9.6590476,9.78671051 L9.6590476,9.78671051 Z M6.94571429,37.8795592 L3.47809525,38.7352849 L3.14809525,38.4274323 L4.12761908,35.0775793 L24.9804762,13.9296752 C25.5619048,13.3400593 25.8814286,12.5626012 25.8814286,11.7381825 L25.8814286,9.28058005 C25.8814286,7.4699897 26.3790477,6.061173 27.3585715,5.09065482 C28.2909524,4.17231506 29.7,3.57748134 31.5595239,3.31137152 L30.2814286,6.24379742 C29.7733334,7.41259348 30.0195239,8.75357831 30.91,9.67191807 L32.5076191,11.3155376 C33.0942858,11.9208069 33.9166667,12.2651844 34.7652381,12.2651844 C35.2314286,12.2651844 35.6766667,12.1660454 36.1009524,11.9677675 L38.8928571,10.6633076 C38.6152381,12.4738979 38.0180953,13.8409719 37.1014286,14.7540939 C36.1166667,15.7350477 34.6919047,16.2307425 32.8690476,16.2307425 L30.4019047,16.2307425 C29.5742857,16.2307425 28.7938095,16.5490307 28.2019047,17.1229931 L6.94571429,37.8795592 L6.94571429,37.8795592 Z M38.3795238,39.0170482 L38.3795238,39.0170482 L28.8042857,29.4840552 L30.0247619,28.2682985 L30.0247619,28.2682985 L30.0247619,28.2682985 L31.2452381,27.0525419 L40.8204762,36.5907528 L38.3795238,39.0170482 L38.3795238,39.0170482 Z" id="Shape"></path>
                                            </g>
                                        </g>
                                    </g>
                                </g>
                            </g>
                        </g>
                    </g>
                </g>
            </g>
        </g>
    </g>
</svg>