<?xml version="1.0" encoding="UTF-8" standalone="no"?>
<svg width="42px" height="39px" viewBox="0 0 42 39" version="1.1" xmlns="http://www.w3.org/2000/svg" xmlns:xlink="http://www.w3.org/1999/xlink">
    <!-- Generator: Sketch 39 (31667) - http://www.bohemiancoding.com/sketch -->
    <title>通知</title>
    <desc>Created with Sketch.</desc>
    <defs></defs>
    <g id="Pipeline" stroke="none" stroke-width="1" fill="none" fill-rule="evenodd">
        <g id="Create_3" transform="translate(-967.000000, -411.000000)" fill="#272636">
            <g id="events">
                <g id="Group-9" transform="translate(188.000000, 67.000000)">
                    <g id="Group-5">
                        <g id="Group-19" transform="translate(1.000000, 104.000000)">
                            <g id="Group-3" transform="translate(215.000000, 0.000000)">
                                <g id="type" transform="translate(16.000000, 29.000000)">
                                    <g id="Group-14" transform="translate(101.000000, 6.000000)">
                                        <g id="Group-20" transform="translate(0.000000, 182.000000)">
                                            <g id="Group-25" transform="translate(374.000000, 0.000000)">
                                                <g id="Group-28" transform="translate(46.000000, 19.000000)">
                                                    <g id="通知" transform="translate(26.000000, 4.000000)">
                                                        <path d="M37.1538462,3.22137745 C37.1538462,0.015652936 35.5126154,0.015652936 33.9230769,0.015652936 C30.7181538,0.015652936 30.4903846,12.838551 12.9230769,12.838551 L4.84615384,12.838551 C2.17107692,12.838551 0,14.9927978 0,17.6471377 L0,20.8528622 C0,23.5072021 2.17107692,25.661449 4.84615384,25.661449 L12.9230769,25.661449 C30.5921538,25.661449 30.6616154,38.484347 33.9230769,38.484347 C35.637,38.4843471 37.1538462,38.4587013 37.1538462,35.2786225 L37.1538462,24.0585868 C39.8289231,24.0585868 42,21.9043399 42,19.25 C42,16.5940572 39.8289231,14.4414132 37.1538462,14.4414132 L37.1538462,3.22137745 Z M33.9230769,33.8392522 C31.6647692,30.0661145 27.5923846,23.6242111 16.1538462,22.5951735 L16.1538462,15.9032236 C27.531,14.8725832 31.6421538,8.44510556 33.9230769,4.6671592 L33.9230769,33.8392522 L33.9230769,33.8392522 Z M12.9230769,38.4843471 L9.69230768,38.4843471 C8.80223076,38.4843471 7.90892308,37.7646619 7.7037692,36.8814848 L5.0787692,27.2643113 L12.81,27.2643113 C12.81,27.2643113 11.3125385,31.7186655 13.3543846,33.3407621 C16.3024615,35.6825438 15.5319231,38.5628873 12.9230769,38.4843471 L12.9230769,38.4843471 Z" id="Shape"></path>
                                                    </g>
                                                </g>
                                            </g>
                                        </g>
                                    </g>
                                </g>
                            </g>
                        </g>
                    </g>
                </g>
            </g>
        </g>
    </g>
</svg>