<?xml version="1.0" encoding="UTF-8" standalone="no"?>
<svg width="33px" height="37px" viewBox="0 0 33 37" version="1.1" xmlns="http://www.w3.org/2000/svg" xmlns:xlink="http://www.w3.org/1999/xlink">
    <!-- Generator: Sketch 39 (31667) - http://www.bohemiancoding.com/sketch -->
    <title>Combined Shape</title>
    <desc>Created with Sketch.</desc>
    <defs></defs>
    <g id="Page-1" stroke="none" stroke-width="1" fill="none" fill-rule="evenodd">
        <g id="Group-33" fill="#272636">
            <g id="未标题-1">
                <g id="图层_1">
                    <path d="M12.9458716,32.035381 C13.3307004,32.9204868 13.8239593,33.7476079 14.4088744,34.4999728 L1.22363585,34.4999728 C0.891862865,34.4999728 0.605753258,34.3777854 0.363166559,34.1341294 C0.12129335,33.8904733 0,33.601536 0,33.2680363 L0,1.23193653 C0,0.898436793 0.120579859,0.60949952 0.363166559,0.365843462 C0.605753258,0.122187404 0.891862865,0 1.22363585,0 L25.686364,0 C26.0174235,0 26.3042466,0.122187404 26.5468333,0.365843462 C26.7887065,0.60949952 26.9099998,0.898436793 26.9099998,1.23193653 L26.9099998,16.5246525 C25.8239991,16.1837582 24.6684398,16 23.4700003,16 C22.9774228,16 22.4920893,16.0310586 22.015852,16.0913236 L22.015852,15.4059768 C22.015852,15.2262895 21.9587728,15.0782271 21.8439009,14.9632272 C21.7290289,14.8482272 21.5827634,14.7900085 21.4043909,14.7900085 L20.1814685,14.7900085 C20.0030959,14.7900085 19.8568304,14.8482272 19.7419585,14.9632272 C19.6270865,15.0789458 19.5700073,15.2262895 19.5700073,15.4059768 L19.5700073,16.6379133 C19.5700073,16.6520744 19.5703618,16.6660346 19.5710712,16.6797942 C17.7601008,17.3343548 16.1609558,18.4318567 14.9045577,19.8413985 C14.8865973,19.8556701 14.8692979,19.8711377 14.8526573,19.8877968 C14.8169641,19.9235312 14.7868501,19.9622812 14.7622731,20.0040682 C13.1134858,21.925096 12.0894898,24.3977973 12.0055883,27.1069162 L10.3969805,27.1069162 C10.218608,27.1069162 10.0723425,27.1651349 9.95747051,27.2801348 C9.84259858,27.3958534 9.78551935,27.5431971 9.78551935,27.7228844 L9.78551935,31.4194128 C9.78551935,31.5991001 9.84259858,31.7471625 9.95747051,31.8621624 C10.0723425,31.9778811 10.218608,32.035381 10.3969805,32.035381 L12.9458716,32.035381 Z M14,27.4571838 C14,32.6795542 18.2338356,36.9143677 23.4549999,36.9143677 C28.6761643,36.9143677 32.9099998,32.6795542 32.9099998,27.4571838 C32.9099998,22.2326897 28.6761643,18 23.4549999,18 C18.2338356,18 14,22.2348135 14,27.4571838 Z M28.0168151,27.6158254 C26.9281067,34.4971062 20.4995424,31.4213822 20.4995424,30.952204 C20.9142885,30.3787639 21.5364076,29.6489311 21.5364076,29.6489311 L17.6481631,29.6489311 L17.6481631,33.5066188 C17.6481631,33.5066188 18.633185,32.6203933 19.2034609,32.2033459 C19.4626772,33.6630116 28.2241882,36.8951283 30.0905455,27.5636945 C29.3647399,27.6679563 28.8981505,27.6158254 28.0168151,27.6158254 L28.0168151,27.6158254 Z M19.2034609,27.3551708 C20.2921693,20.5260209 26.7207336,23.6017449 26.7207336,24.0187922 C26.3059875,24.5401014 25.6838684,25.3220651 25.6838684,25.3220651 L29.5721129,25.3220651 L29.5721129,21.4643774 C29.5721129,21.4643774 28.587091,22.350603 28.0168151,22.7676503 C27.7575988,21.3079846 18.9960878,18.0758679 17.1297304,27.4073017 C17.8555361,27.3030399 18.3221254,27.3551708 19.2034609,27.3551708 Z M7.33896114,6.77708841 L7.33896114,5.54515188 C7.33896114,5.36546453 7.28188192,5.21812089 7.16700998,5.10240223 C7.05213804,4.98668357 6.90587253,4.92918362 6.72749996,4.92918362 L5.5045776,4.92918362 C5.32620503,4.92918362 5.17922603,4.98668357 5.06506758,5.10240223 C4.95019564,5.21812089 4.89311642,5.36546453 4.89311642,5.54515188 L4.89311642,6.77708841 C4.89311642,6.95677577 4.95090914,7.10483816 5.06506758,7.21983807 C5.17922603,7.33483797 5.32620503,7.39305668 5.5045776,7.39305668 L6.72749996,7.39305668 C6.90587253,7.39305668 7.05213804,7.33483797 7.16700998,7.21983807 C7.28188192,7.10411941 7.33896114,6.95677577 7.33896114,6.77708841 Z M7.33896114,11.7055533 L7.33896114,10.4736168 C7.33896114,10.2939294 7.28188192,10.145867 7.16700998,10.0308671 C7.05213804,9.91514844 6.90587253,9.85764849 6.72749996,9.85764849 L5.5045776,9.85764849 C5.32620503,9.85764849 5.17922603,9.91586719 5.06506758,10.0308671 C4.95090914,10.145867 4.89311642,10.2939294 4.89311642,10.4736168 L4.89311642,11.7055533 C4.89311642,11.8852406 4.95090914,12.0325843 5.06506758,12.1483029 C5.17922603,12.2640216 5.32620503,12.3215215 5.5045776,12.3215215 L6.72749996,12.3215215 C6.90587253,12.3215215 7.05213804,12.2633028 7.16700998,12.1483029 C7.28188192,12.0325843 7.33896114,11.8852406 7.33896114,11.7055533 Z M7.33896114,16.6340182 L7.33896114,15.4020816 C7.33896114,15.2223943 7.28188192,15.0750506 7.16700998,14.959332 C7.05213804,14.8436133 6.90587253,14.7861134 6.72749996,14.7861134 L5.5045776,14.7861134 C5.32620503,14.7861134 5.17922603,14.8436133 5.06506758,14.959332 C4.95019564,15.0750506 4.89311642,15.2223943 4.89311642,15.4020816 L4.89311642,16.6340182 C4.89311642,16.8137055 4.95090914,16.9617679 5.06506758,17.0767678 C5.17922603,17.1917677 5.32549154,17.2499864 5.5045776,17.2499864 L6.72749996,17.2499864 C6.90587253,17.2499864 7.05213804,17.1924865 7.16700998,17.0767678 C7.28188192,16.9617679 7.33896114,16.8144243 7.33896114,16.6340182 Z M7.33896114,21.562483 L7.33896114,20.3305465 C7.33896114,20.1508591 7.28188192,20.0027967 7.16700998,19.8877968 C7.05213804,19.7720782 6.90587253,19.7145782 6.72749996,19.7145782 L5.5045776,19.7145782 C5.32620503,19.7145782 5.17922603,19.7727969 5.06506758,19.8877968 C4.95090914,20.0027967 4.89311642,20.1508591 4.89311642,20.3305465 L4.89311642,21.562483 C4.89311642,21.7421704 4.95090914,21.8902328 5.06506758,22.0052327 C5.17922603,22.1202326 5.32620503,22.1784513 5.5045776,22.1784513 L6.72749996,22.1784513 C6.90587253,22.1784513 7.05213804,22.1202326 7.16700998,22.0052327 C7.28188192,21.8902328 7.33896114,21.7421704 7.33896114,21.562483 Z M7.33896114,26.4909479 L7.33896114,25.2590114 C7.33896114,25.079324 7.28188192,24.9312616 7.16700998,24.8162617 C7.05213804,24.7005431 6.90587253,24.6430431 6.72749996,24.6430431 L5.5045776,24.6430431 C5.32620503,24.6430431 5.17922603,24.7005431 5.06506758,24.8162617 C4.95090914,24.9319804 4.89311642,25.079324 4.89311642,25.2590114 L4.89311642,26.4909479 C4.89311642,26.6706352 4.95090914,26.8179789 5.06506758,26.9336975 C5.17993952,27.0494162 5.32620503,27.1069162 5.5045776,27.1069162 L6.72749996,27.1069162 C6.90587253,27.1069162 7.05213804,27.0494162 7.16700998,26.9336975 C7.28188192,26.8179789 7.33896114,26.6706352 7.33896114,26.4909479 Z M9.78551935,5.54443313 L9.78551935,6.77636966 C9.78551935,6.95605702 9.84259858,7.10411941 9.95747051,7.21911932 C10.0723425,7.33483797 10.218608,7.39233793 10.3969805,7.39233793 L11.6199029,7.39233793 C11.7982755,7.39233793 11.9452545,7.33411923 12.0594129,7.21911932 C12.1735714,7.10411941 12.2313641,6.95605702 12.2313641,6.77636966 L12.2313641,5.54443313 C12.2313641,5.36474578 12.1735714,5.21740214 12.0594129,5.10168348 C11.944541,4.98596482 11.7982755,4.92846487 11.6199029,4.92846487 L10.3969805,4.92846487 C10.218608,4.92846487 10.0723425,4.98596482 9.95747051,5.10168348 C9.84259858,5.21740214 9.78551935,5.36546453 9.78551935,5.54443313 Z M9.78551935,10.4736168 L9.78551935,11.7055533 C9.78551935,11.8852406 9.84259858,12.0325843 9.95747051,12.1483029 C10.0723425,12.2640216 10.218608,12.3215215 10.3969805,12.3215215 L11.6199029,12.3215215 C11.7982755,12.3215215 11.9452545,12.2633028 12.0594129,12.1483029 C12.1735714,12.033303 12.2313641,11.8852406 12.2313641,11.7055533 L12.2313641,10.4736168 C12.2313641,10.2939294 12.1735714,10.145867 12.0594129,10.0308671 C11.9452545,9.91586719 11.7982755,9.85764849 11.6199029,9.85764849 L10.3969805,9.85764849 C10.218608,9.85764849 10.0723425,9.91586719 9.95747051,10.0308671 C9.84259858,10.145867 9.78551935,10.2939294 9.78551935,10.4736168 Z M9.78551935,15.4020816 L9.78551935,16.6340182 C9.78551935,16.8137055 9.84259858,16.9617679 9.95747051,17.0767678 C10.0723425,17.1924865 10.218608,17.2499864 10.3969805,17.2499864 L11.6199029,17.2499864 C11.7982755,17.2499864 11.9452545,17.1924865 12.0594129,17.0767678 C12.1735714,16.9610491 12.2313641,16.8137055 12.2313641,16.6340182 L12.2313641,15.4020816 C12.2313641,15.2223943 12.1735714,15.0750506 12.0594129,14.959332 C11.944541,14.8436133 11.7982755,14.7861134 11.6199029,14.7861134 L10.3969805,14.7861134 C10.218608,14.7861134 10.0723425,14.8436133 9.95747051,14.959332 C9.84259858,15.0750506 9.78551935,15.2223943 9.78551935,15.4020816 Z M9.78551935,20.3305465 L9.78551935,21.562483 C9.78551935,21.7421704 9.84259858,21.8902328 9.95747051,22.0052327 C10.0723425,22.1209513 10.218608,22.1784513 10.3969805,22.1784513 L11.6199029,22.1784513 C11.7982755,22.1784513 11.9452545,22.1202326 12.0594129,22.0052327 C12.1735714,21.8902328 12.2320776,21.7421704 12.2320776,21.562483 L12.2320776,20.3305465 C12.2320776,20.1508591 12.1742848,20.0027967 12.0601264,19.8877968 C11.945968,19.7727969 11.798989,19.7145782 11.6206164,19.7145782 L10.397694,19.7145782 C10.2193215,19.7145782 10.0730559,19.7727969 9.958184,19.8877968 C9.84259858,20.0035155 9.78551935,20.1508591 9.78551935,20.3305465 Z M17.1244805,6.77708841 L17.1244805,5.54515188 C17.1244805,5.36546453 17.0666878,5.21812089 16.9525293,5.10240223 C16.8376574,4.98668357 16.6913919,4.92918362 16.5130193,4.92918362 L15.290097,4.92918362 C15.1117244,4.92918362 14.9647454,4.98668357 14.8505869,5.10240223 C14.735715,5.21812089 14.6786358,5.36546453 14.6786358,5.54515188 L14.6786358,6.77708841 C14.6786358,6.95677577 14.7364285,7.10483816 14.8505869,7.21983807 C14.9647454,7.33483797 15.1117244,7.39305668 15.290097,7.39305668 L16.5130193,7.39305668 C16.6913919,7.39305668 16.8376574,7.33483797 16.9525293,7.21983807 C17.0674013,7.10483816 17.1244805,6.95677577 17.1244805,6.77708841 Z M17.1244805,11.7055533 L17.1244805,10.4736168 C17.1244805,10.2939294 17.0666878,10.145867 16.9525293,10.0308671 C16.8383709,9.91586719 16.6913919,9.85764849 16.5130193,9.85764849 L15.290097,9.85764849 C15.1117244,9.85764849 14.9647454,9.91586719 14.8505869,10.0308671 C14.7364285,10.145867 14.6786358,10.2939294 14.6786358,10.4736168 L14.6786358,11.7055533 C14.6786358,11.8852406 14.7364285,12.0325843 14.8505869,12.1483029 C14.9647454,12.2640216 15.1117244,12.3215215 15.290097,12.3215215 L16.5130193,12.3215215 C16.6913919,12.3215215 16.8376574,12.2633028 16.9525293,12.1483029 C17.0674013,12.033303 17.1244805,11.8852406 17.1244805,11.7055533 Z M17.1244805,16.6340182 L17.1244805,15.4020816 C17.1244805,15.2223943 17.0666878,15.0750506 16.9525293,14.959332 C16.8376574,14.8436133 16.6913919,14.7861134 16.5130193,14.7861134 L15.290097,14.7861134 C15.1117244,14.7861134 14.9647454,14.8436133 14.8505869,14.959332 C14.735715,15.0750506 14.6786358,15.2223943 14.6786358,15.4020816 L14.6786358,16.6340182 C14.6786358,16.8137055 14.7364285,16.9617679 14.8505869,17.0767678 C14.9647454,17.1917677 15.1110109,17.2499864 15.2893835,17.2499864 L16.5123058,17.2499864 C16.6906784,17.2499864 16.8369439,17.1924865 16.9518158,17.0767678 C17.0666878,16.9610491 17.1244805,16.8144243 17.1244805,16.6340182 Z M22.0161699,6.77708841 L22.0161699,5.54515188 C22.0161699,5.36546453 21.9590907,5.21812089 21.8442188,5.10240223 C21.7293468,4.98668357 21.5830813,4.92918362 21.4047088,4.92918362 L20.1817864,4.92918362 C20.0034138,4.92918362 19.8571483,4.98668357 19.7422764,5.10240223 C19.6274044,5.21812089 19.5703252,5.36546453 19.5703252,5.54515188 L19.5703252,6.77708841 C19.5703252,6.95677577 19.6274044,7.10483816 19.7422764,7.21983807 C19.8571483,7.33555672 20.0034138,7.39305668 20.1817864,7.39305668 L21.4047088,7.39305668 C21.5830813,7.39305668 21.7300603,7.33483797 21.8442188,7.21983807 C21.9583772,7.10483816 22.0161699,6.95677577 22.0161699,6.77708841 Z M22.015852,11.7078901 L22.015852,10.4759536 C22.015852,10.2962663 21.9587728,10.1482039 21.8439009,10.033204 C21.7290289,9.91820406 21.5827634,9.85998535 21.4043909,9.85998535 L20.1814685,9.85998535 C20.0030959,9.85998535 19.8568304,9.91820406 19.7419585,10.033204 C19.6270865,10.1489226 19.5700073,10.2962663 19.5700073,10.4759536 L19.5700073,11.7078901 C19.5700073,11.8875775 19.6270865,12.0349211 19.7419585,12.1506398 C19.8568304,12.2663585 20.0030959,12.3238584 20.1814685,12.3238584 L21.4043909,12.3238584 C21.5827634,12.3238584 21.7297424,12.2656397 21.8439009,12.1506398 C21.9580593,12.0356399 22.015852,11.8875775 22.015852,11.7078901 Z" id="Combined-Shape"></path>
                </g>
            </g>
        </g>
    </g>
</svg>