<?xml version="1.0" encoding="UTF-8" standalone="no"?>
<svg width="53px" height="41px" viewBox="0 0 53 41" version="1.1" xmlns="http://www.w3.org/2000/svg" xmlns:xlink="http://www.w3.org/1999/xlink">
    <!-- Generator: Sketch 39 (31667) - http://www.bohemiancoding.com/sketch -->
    <title>升级</title>
    <desc>Created with Sketch.</desc>
    <defs></defs>
    <g id="Pipeline" stroke="none" stroke-width="1" fill="none" fill-rule="evenodd">
        <g id="Create_3" transform="translate(-779.000000, -284.000000)" fill="#272636">
            <g id="events">
                <g id="Group-9" transform="translate(188.000000, 67.000000)">
                    <g id="Group-5">
                        <g id="Group-19" transform="translate(1.000000, 104.000000)">
                            <g id="Group-3" transform="translate(215.000000, 0.000000)">
                                <g id="type" transform="translate(16.000000, 29.000000)">
                                    <g id="Group-14" transform="translate(101.000000, 6.000000)">
                                        <g id="升级" transform="translate(258.000000, 78.000000)">
                                            <polygon id="Shape" points="49.8731707 6.83500004 49.8731707 13.6700001 46.1268293 13.6700001 46.1268293 6.83500004 43.004878 6.83500004 48 0 52.995122 6.83500004"></polygon>
                                            <path d="M38.3301756,28.9993555 L38.3301756,14.6441104 L22.7474678,19.903186 L22.7474678,36.8766834 L38.3301756,28.9993555 Z M21.189197,17.352043 L38.1840876,11.6202523 L21.189197,5.88846151 L4.19430642,11.6202523 L21.189197,17.352043 Z M41.446717,11.6653845 L41.446717,28.9961533 C41.446717,29.5226958 41.3006292,30.0116281 41.0084534,30.4629502 C40.7162776,30.9142723 40.318594,31.2678079 39.8154023,31.5235571 L22.6744239,40.1889416 C22.2199282,40.4296467 21.7248526,40.5499992 21.189197,40.5499992 C20.6535415,40.5499992 20.1584658,40.4296467 19.7039702,40.1889416 L2.56299172,31.5235571 C2.05980011,31.2678079 1.66211642,30.9142723 1.36994066,30.4629502 C1.0777649,30.0116281 0.931677019,29.5226958 0.931677019,28.9961533 L0.931677019,11.6653845 C0.931677019,11.0636216 1.11834487,10.5145131 1.49168057,10.0180588 C1.86501627,9.52160444 2.36009188,9.16806879 2.97690741,8.95745181 L20.1178859,3.18052886 C20.4749896,3.06017629 20.8320933,3 21.189197,3 C21.5463007,3 21.9034045,3.06017629 22.2605082,3.18052886 L39.4014867,8.95745181 C40.0183022,9.16806879 40.5133778,9.52160444 40.8867135,10.0180588 C41.2600492,10.5145131 41.446717,11.0636216 41.446717,11.6653845 L41.446717,11.6653845 Z" id="Shape"></path>
                                        </g>
                                    </g>
                                </g>
                            </g>
                        </g>
                    </g>
                </g>
            </g>
        </g>
    </g>
</svg>