<?xml version="1.0" encoding="UTF-8" standalone="no"?>
<svg width="20px" height="6px" viewBox="0 0 20 6" version="1.1" xmlns="http://www.w3.org/2000/svg" xmlns:xlink="http://www.w3.org/1999/xlink">
    <!-- Generator: Sketch 39 (31667) - http://www.bohemiancoding.com/sketch -->
    <title>exec</title>
    <desc>Created with Sketch.</desc>
    <defs>
        <polygon id="path-1" points="0.06 0.555 0.06 5.887 4.723 5.887 4.723 0.555 0.06 0.555"></polygon>
        <polygon id="path-3" points="0.434 5.94 10.047 5.94 10.047 0.43 5.2405 0.43 0.434 0.43 0.434 5.94"></polygon>
    </defs>
    <g id="Page-1" stroke="none" stroke-width="1" fill="none" fill-rule="evenodd">
        <g id="exec">
            <g id="Group-3">
                <mask id="mask-2" fill="white">
                    <use xlink:href="#path-1"></use>
                </mask>
                <g id="Clip-2"></g>
                <polyline id="Fill-1" fill="#010503" mask="url(#mask-2)" points="4.137 4.66 3.93 5.887 0 5.887 0.891 0.555 4.723 0.555 4.527 1.723 2.24 1.723 2.102 2.559 4.023 2.559 3.828 3.715 1.91 3.715 1.753 4.66 4.137 4.66"></polyline>
            </g>
            <path d="M9.73,0.555 L7.79,3.12 L9.102,5.887 L7.407,5.887 L6.817,4.527 C6.729,4.324 6.669,4.198 6.638,4.148 C6.614,4.185 6.567,4.251 6.498,4.348 C6.49,4.36 6.461,4.402 6.412,4.473 L5.427,5.887 L3.984,5.887 L6.071,3.037 L4.875,0.555 L6.574,0.555 L7.056,1.636 C7.082,1.693 7.136,1.828 7.217,2.039 L8.295,0.555 L9.73,0.555" id="Fill-4" fill="#010503"></path>
            <g id="Group-8" transform="translate(9.000000, 0.000000)">
                <mask id="mask-4" fill="white">
                    <use xlink:href="#path-3"></use>
                </mask>
                <g id="Clip-6"></g>
                <polyline id="Fill-5" fill="#010503" mask="url(#mask-4)" points="4.57 4.66 4.363 5.887 0.434 5.887 1.324 0.555 5.156 0.555 4.961 1.723 2.674 1.723 2.535 2.559 4.457 2.559 4.262 3.715 2.344 3.715 2.187 4.66 4.57 4.66"></polyline>
                <path d="M8.363,3.824 L9.793,4.008 C9.626,4.591 9.34,5.069 8.936,5.441 C8.531,5.814 8.02,6 7.402,6 C6.733,6 6.201,5.773 5.807,5.318 C5.412,4.864 5.215,4.28 5.215,3.566 C5.215,2.744 5.459,2.015 5.945,1.381 C6.432,0.747 7.102,0.43 7.953,0.43 C8.573,0.43 9.075,0.62 9.459,1 C9.843,1.38 10.039,1.883 10.047,2.508 L8.543,2.617 C8.538,2.289 8.487,2.044 8.391,1.883 C8.294,1.721 8.131,1.641 7.902,1.641 C7.506,1.641 7.236,1.934 7.092,2.52 C6.947,3.105 6.875,3.566 6.875,3.902 C6.875,4.449 7.088,4.723 7.516,4.723 C7.727,4.723 7.897,4.652 8.027,4.512 C8.158,4.371 8.27,4.142 8.363,3.824" id="Fill-7" fill="#010503" mask="url(#mask-4)"></path>
            </g>
        </g>
    </g>
</svg>